<?xml version="1.0" encoding="iso-8859-1"?>
<!DOCTYPE svg PUBLIC "-//W3C//DTD SVG 1.1//EN" "http://www.w3.org/Graphics/SVG/1.1/DTD/svg11.dtd">
<svg version="1.1" id="Capa_1" xmlns="http://www.w3.org/2000/svg" xmlns:xlink="http://www.w3.org/1999/xlink" x="0px" y="0px"
	 viewBox="0 0 64 64" style="enable-background:new 0 0 64 64;" xml:space="preserve">
<g>
	<path d="M10.998,25.333H8.665c-2.067,0-3.75,1.683-3.75,3.75V49.2c0,0.552,0.448,1,1,1h7.834c0.552,0,1-0.448,1-1V29.083
		C14.748,27.016,13.066,25.333,10.998,25.333z M12.248,48.7H7.415c-0.552,0-1-0.448-1-1V29.083c0-1.24,1.01-2.25,2.25-2.25h2.334
		c1.24,0,2.25,1.01,2.25,2.25V47.7C13.248,48.252,12.801,48.7,12.248,48.7z"/>
	<path d="M16.763,24.98V49.2c0,0.552,0.448,1,1,1h7.834c0.552,0,1-0.448,1-1V24.98c0-2.067-1.683-3.75-3.75-3.75h-2.334
		C18.446,21.23,16.763,22.913,16.763,24.98z M25.097,47.7c0,0.552-0.448,1-1,1h-4.834c-0.552,0-1-0.448-1-1V24.98
		c0-1.24,1.01-2.25,2.25-2.25h2.334c1.24,0,2.25,1.01,2.25,2.25V47.7z"/>
	<path d="M32.362,16.48c-2.067,0-3.75,1.683-3.75,3.75V49.2c0,0.552,0.448,1,1,1h7.834c0.552,0,1-0.448,1-1V20.23
		c0-2.067-1.683-3.75-3.75-3.75H32.362z M35.946,48.7h-4.834c-0.552,0-1-0.448-1-1V20.23c0-1.24,1.01-2.25,2.25-2.25h2.334
		c1.24,0,2.25,1.01,2.25,2.25V47.7C36.946,48.252,36.498,48.7,35.946,48.7z"/>
	<path d="M44.21,12.981c-2.067,0-3.75,1.683-3.75,3.75V49.2c0,0.552,0.448,1,1,1h7.834c0.552,0,1-0.448,1-1V16.73
		c0-2.067-1.683-3.75-3.75-3.75H44.21z M47.794,48.7H42.96c-0.552,0-1-0.448-1-1V16.73c0-1.24,1.01-2.25,2.25-2.25h2.334
		c1.24,0,2.25,1.01,2.25,2.25V47.7C48.794,48.252,48.347,48.7,47.794,48.7z"/>
	<path d="M5.165,22.147c0.506,0.415,1.144,0.644,1.799,0.644c0.853,0,1.652-0.377,2.193-1.035c0,0,0.151-0.184,0.337-0.412
		c0.186-0.227,0.489-0.228,0.676,0l0.339,0.411c0.518,0.632,1.346,1.009,2.213,1.009c0.662,0,1.293-0.22,1.777-0.617
		c1.209-0.993,1.383-2.784,0.391-3.991l-0.752-0.916c-0.351-0.427-0.351-1.119,0-1.545l0.752-0.915
		c0.48-0.585,0.705-1.322,0.631-2.077c-0.072-0.754-0.436-1.433-1.022-1.915c-0.484-0.398-1.115-0.616-1.777-0.616
		c-0.867,0-1.695,0.377-2.215,1.007c0,0-0.151,0.184-0.338,0.412c-0.187,0.227-0.489,0.227-0.675,0l-0.337-0.412
		c-0.519-0.631-1.346-1.008-2.213-1.008c-0.664,0-1.295,0.22-1.779,0.618c-0.658,0.54-1.035,1.339-1.035,2.191
		c0,0.653,0.228,1.293,0.644,1.8l0.752,0.915c0.351,0.427,0.351,1.119,0,1.545l-0.754,0.917c-0.414,0.506-0.643,1.145-0.643,1.798
		C4.129,20.805,4.506,21.604,5.165,22.147z M7.467,17.239c0.351-0.427,0.35-1.118,0-1.545l-1.535-1.866
		c-0.197-0.243-0.303-0.537-0.303-0.849c0-0.401,0.178-0.778,0.486-1.032c0.242-0.199,0.535-0.305,0.848-0.305
		c0.402,0,0.779,0.178,1.033,0.487l1.2,1.461c0.35,0.427,0.919,0.427,1.269,0l1.201-1.461c0.426-0.52,1.357-0.613,1.881-0.184
		c0.275,0.227,0.445,0.546,0.48,0.901c0.035,0.355-0.072,0.703-0.299,0.978l-1.533,1.867c-0.351,0.427-0.35,1.119,0,1.545
		l1.535,1.867c0.226,0.275,0.33,0.623,0.297,0.979c-0.035,0.356-0.207,0.676-0.482,0.901c-0.523,0.434-1.449,0.338-1.879-0.185
		l-1.201-1.459c-0.351-0.427-0.92-0.426-1.27,0l-1.199,1.46c-0.451,0.548-1.334,0.632-1.879,0.186
		c-0.311-0.257-0.488-0.634-0.488-1.035c0-0.312,0.103-0.604,0.303-0.847L7.467,17.239z"/>
</g>
</svg>
